<svg id="Layer_1" data-name="Layer 1" xmlns="http://www.w3.org/2000/svg" viewBox="0 0 1068 656.9"><defs><style>.cls-1{fill:#e57060;}</style></defs><title>logo-red</title><g id="Layer_2" data-name="Layer 2"><g id="Layer_1-2" data-name="Layer 1-2"><path class="cls-1" d="M215,294.45A162.2,162.2,0,0,1,304.2,1v.2c1.46-.16,2.94-.27,4.43-.31H488A54.06,54.06,0,0,1,489.47,109q-.74,0-1.47,0H310.13a53.43,53.43,0,0,1-5.93-.33v.66a54.06,54.06,0,0,0,0,107.47v.33a54.06,54.06,0,0,1,2.06,108.09l-2.06-.07c-2.7-.09-5.39-.26-8.05-.48A161.33,161.33,0,0,1,215,294.45" transform="translate(0)"/><circle class="cls-1" cx="674.16" cy="54.06" r="54.06"/><path class="cls-1" d="M107.56,61.83a54.06,54.06,0,1,0-107,0V263.3a54.08,54.08,0,1,0,107,0Z" transform="translate(0)"/><path class="cls-1" d="M32.62,611.36H.72V452h31.9v79.68L92,452h36.23L77.85,519.23l50.34,92.13H92L57,546.9,32.62,579.46Z" transform="translate(0)"/><path class="cls-1" d="M247.21,550.79a63.9,63.9,0,0,1-4.78,24.84,62.15,62.15,0,0,1-13,19.89,60.31,60.31,0,0,1-99-19.89,63.9,63.9,0,0,1-4.78-24.84,65.08,65.08,0,0,1,4.78-25.11,61.49,61.49,0,0,1,13.06-19.95,60.82,60.82,0,0,1,19.34-13.17,59,59,0,0,1,23.61-4.78,62.4,62.4,0,0,1,23.73,4.5,57.3,57.3,0,0,1,19.28,12.78,60.74,60.74,0,0,1,13,19.89A67.25,67.25,0,0,1,247.21,550.79Zm-30.56,0a35.45,35.45,0,0,0-2.39-13.28,31.82,31.82,0,0,0-6.5-10.22,28.11,28.11,0,0,0-9.62-6.56,31.26,31.26,0,0,0-23.44,0,27.51,27.51,0,0,0-9.56,6.56,31,31,0,0,0-6.39,10.22,35.86,35.86,0,0,0-2.33,13.28,34.25,34.25,0,0,0,2.33,12.78,31.84,31.84,0,0,0,6.39,10.23,29.74,29.74,0,0,0,9.56,6.83,27.87,27.87,0,0,0,11.72,2.5,29.86,29.86,0,0,0,11.72-2.33,29.23,29.23,0,0,0,9.62-6.56,30.85,30.85,0,0,0,6.5-10.22,35.62,35.62,0,0,0,2.39-13.23Z" transform="translate(0)"/><path class="cls-1" d="M294.55,611.36H264V445h30.56Z" transform="translate(0)"/><path class="cls-1" d="M436.8,550.79a66.4,66.4,0,0,1-4.8,25.56,61,61,0,0,1-13,19.84A58,58,0,0,1,399.73,609,61.5,61.5,0,0,1,376,613.58a60.05,60.05,0,0,1-42.95-17.67A61,61,0,0,1,320,576.07a65.18,65.18,0,0,1-4.78-25.28V445h30.45v55.56a27.51,27.51,0,0,1,5.95-5.55,35.22,35.22,0,0,1,7.55-4,48.92,48.92,0,0,1,8.39-2.38,44.34,44.34,0,0,1,8.45-.84,59.63,59.63,0,0,1,23.72,4.73A58.67,58.67,0,0,1,419,505.67a63,63,0,0,1,13,19.95A65.18,65.18,0,0,1,436.8,550.79Zm-30.56,0A34.12,34.12,0,0,0,403.85,538a32.26,32.26,0,0,0-6.5-10.28,29.91,29.91,0,0,0-9.62-6.78A28.57,28.57,0,0,0,376,518.45a26.07,26.07,0,0,0-11.73,2.73,32.09,32.09,0,0,0-9.61,7.22,33.49,33.49,0,0,0-6.44,10.33,32.16,32.16,0,0,0-2.34,12.06,34.26,34.26,0,0,0,2.34,12.78,31.53,31.53,0,0,0,6.44,10.23,30.48,30.48,0,0,0,9.61,6.83,28.77,28.77,0,0,0,23.45,0,30.52,30.52,0,0,0,9.62-6.83,32.5,32.5,0,0,0,6.5-10.23A33.66,33.66,0,0,0,406.24,550.79Z" transform="translate(0)"/><path class="cls-1" d="M482.25,656.7V626.14l16.89.22a25.73,25.73,0,0,0,8.56-1.44,29.3,29.3,0,0,0,7.61-4,30,30,0,0,0,6.17-6,33.11,33.11,0,0,0,4.33-7.61q-5,2.1-10.17,4.22a27.24,27.24,0,0,1-10.39,2.11,55,55,0,0,1-20.67-3.89,50.23,50.23,0,0,1-28.39-28.5A60.91,60.91,0,0,1,452,558.13V492.34h30.23v65.79a30.52,30.52,0,0,0,1.83,11A22.75,22.75,0,0,0,489,577a19.68,19.68,0,0,0,7.28,4.73,25.23,25.23,0,0,0,8.94,1.55,18.9,18.9,0,0,0,8.84-2.16,24.87,24.87,0,0,0,7.28-5.73,27.66,27.66,0,0,0,4.89-8,25.17,25.17,0,0,0,1.77-9.28V492.34h30.56v104a59.63,59.63,0,0,1-4.89,23.55,61.11,61.11,0,0,1-13,19.23,62,62,0,0,1-19.28,13,58.37,58.37,0,0,1-23.56,4.78Z" transform="translate(0)"/><path class="cls-1" d="M639.27,499.78a45.85,45.85,0,0,1,3.78-18.55,48.56,48.56,0,0,1,25.45-25.45A45.93,45.93,0,0,1,687.06,452h73.12v31.89H687.06a15.75,15.75,0,0,0-15.89,15.61v.28a16.11,16.11,0,0,0,1.22,6.28,15.75,15.75,0,0,0,14.67,9.73H719a47,47,0,0,1,18.62,3.72A47.59,47.59,0,0,1,763,545a47.88,47.88,0,0,1-25.45,62.62A46.39,46.39,0,0,1,719,611.36H648.16v-31.9H719a15.93,15.93,0,0,0,11.28-27.17A15.73,15.73,0,0,0,719,547.68H687.06a45.93,45.93,0,0,1-18.56-3.78,48.41,48.41,0,0,1-25.45-25.5A46.38,46.38,0,0,1,639.27,499.78Z" transform="translate(0)"/><path class="cls-1" d="M820.19,460a19.48,19.48,0,0,1-1.61,7.89,20.36,20.36,0,0,1-4.39,6.39,21.07,21.07,0,0,1-6.5,4.33,20.41,20.41,0,0,1-22.34-4.33,20.76,20.76,0,0,1-4.33-6.39,20,20,0,0,1,0-15.73,20.35,20.35,0,0,1,26.67-10.77,21.07,21.07,0,0,1,6.5,4.33,20.14,20.14,0,0,1,4.39,6.44A19.58,19.58,0,0,1,820.19,460ZM815,611.36H784.41v-119H815Z" transform="translate(0)"/><path class="cls-1" d="M903.43,611.36H834.08V581.13h69.35a7.58,7.58,0,0,0,7.55-7.56q0-3.21-2.22-4.22a12.83,12.83,0,0,0-5.33-1H871.87a36.46,36.46,0,0,1-14.78-3,37.87,37.87,0,0,1-12-8.17A38.05,38.05,0,0,1,837,515.56a37.67,37.67,0,0,1,34.84-22.95h61.45v30.23H871.87a7.67,7.67,0,0,0-5.34,13.06,7.22,7.22,0,0,0,5.34,2.27h31.56a41.26,41.26,0,0,1,14.67,2.61,37.47,37.47,0,0,1,12,7.28,34.55,34.55,0,0,1,8.11,11.23,34,34,0,0,1,3,14.33,36.22,36.22,0,0,1-3,14.73,39.36,39.36,0,0,1-8.11,12,37.27,37.27,0,0,1-12,8.11A36.76,36.76,0,0,1,903.43,611.36Z" transform="translate(0)"/><path class="cls-1" d="M987.89,611.36H957.33V445h30.56V549.9l45.23-57.34H1068l-39.45,49.56L1068,611.36h-34.89L1009,568.13l-21.11,28Z" transform="translate(0)"/></g></g></svg>